# xmcd
#
# Track frame offsets: 
#        150
#        10820
#        20067
#        30832
#        44635
#        56020
#        69402
#        80797
#        92827
#        105997
#        121092
#        130917
#        140615
#        154527
#        165022
#        180525
#        194075
#        210592
#        225217
#        238625
#
# Disc length: 3433 seconds
#
# Revision: 3
# Processed by: cddbd v1.5.2PL0 Copyright (c) Steve Scherf et al.
# Submitted via: ExactAudioCopy v0.95a4
#
DISCID=fc0d6714
DTITLE=Waylon Jennings - The Essential Waylon Jennings
DYEAR=1996
DGENRE=Country
TTITLE0=Only Daddy'll That'll Walk The Line
TTITLE1=Brown Eyed Handsome Man
TTITLE2=The Taker
TTITLE3=Good Hearted Woman
TTITLE4=You Asked Me To
TTITLE5=Amanda
TTITLE6=Rainday Woman
TTITLE7=Waymore's Blues
TTITLE8=Are You Sure Hank Done It This Way
TTITLE9=Wild Side Of Life - It Wasn't God Who Made Honky-Tonk Angels
TTITLE10=The Wurlitzer Prize (I Don't Want To Get Over You)
TTITLE11=Theme From The Dukes Of Hazzard (Good Ol' Boys)
TTITLE12=Storms Never Last
TTITLE13=Just To Satisfy You
TTITLE14=Lucille (You Won't Do Your Daddy's Will)
TTITLE15=Never Could Toe The Mark
TTITLE16=America
TTITLE17=The Broken Promise Land
TTITLE18=Drinkin' And Dreamin'
TTITLE19=Whatever Happened To The Blues
EXTD=
EXTT0=
EXTT1=
EXTT2=
EXTT3=
EXTT4=
EXTT5=
EXTT6=
EXTT7=
EXTT8=
EXTT9=
EXTT10=
EXTT11=
EXTT12=
EXTT13=
EXTT14=
EXTT15=
EXTT16=
EXTT17=
EXTT18=
EXTT19=
PLAYORDER=
